<?xml version="1.0" encoding="UTF-8" standalone="no"?><svg xmlns="http://www.w3.org/2000/svg" xmlns:xlink="http://www.w3.org/1999/xlink" contentScriptType="application/ecmascript" contentStyleType="text/css" height="475px" preserveAspectRatio="none" style="width:1271px;height:475px;" version="1.1" viewBox="0 0 1271 475" width="1271px" zoomAndPan="magnify"><defs><filter height="300%" id="f4fk4y28r0p5y" width="300%" x="-1" y="-1"><feGaussianBlur result="blurOut" stdDeviation="2.0"/><feColorMatrix in="blurOut" result="blurOut2" type="matrix" values="0 0 0 0 0 0 0 0 0 0 0 0 0 0 0 0 0 0 .4 0"/><feOffset dx="4.0" dy="4.0" in="blurOut2" result="blurOut3"/><feBlend in="SourceGraphic" in2="blurOut3" mode="normal"/></filter></defs><g><!--cluster rlbox.core--><rect fill="#FFFFFF" filter="url(#f4fk4y28r0p5y)" height="100" style="stroke: #000000; stroke-width: 1.5;" width="281" x="466" y="24"/><path d="M548,25 L548,34.6094 L538,44.6094 L466,44.6094 " fill="none" style="stroke: #000000; stroke-width: 1.5;"/><text fill="#000000" font-family="sans-serif" font-size="14" font-weight="bold" lengthAdjust="spacingAndGlyphs" textLength="72" x="469" y="39.5332">rlbox.core</text><!--cluster rlbox.agent.tab.epsilongreedy--><rect fill="#FFFFFF" filter="url(#f4fk4y28r0p5y)" height="316" style="stroke: #000000; stroke-width: 1.5;" width="315" x="22" y="148"/><path d="M243,149 L243,158.6094 L233,168.6094 L22,168.6094 " fill="none" style="stroke: #000000; stroke-width: 1.5;"/><text fill="#000000" font-family="sans-serif" font-size="14" font-weight="bold" lengthAdjust="spacingAndGlyphs" textLength="211" x="25" y="163.5332">rlbox.agent.tab.epsilongreedy</text><!--cluster rlbox.agent.tab.ucb--><rect fill="#FFFFFF" filter="url(#f4fk4y28r0p5y)" height="100" style="stroke: #000000; stroke-width: 1.5;" width="152" x="361" y="148"/><path d="M507,149 L507,158.6094 L497,168.6094 L361,168.6094 " fill="none" style="stroke: #000000; stroke-width: 1.5;"/><text fill="#000000" font-family="sans-serif" font-size="14" font-weight="bold" lengthAdjust="spacingAndGlyphs" textLength="136" x="364" y="163.5332">rlbox.agent.tab.ucb</text><!--cluster rlbox.agent.tab.gradient--><rect fill="#FFFFFF" filter="url(#f4fk4y28r0p5y)" height="100" style="stroke: #000000; stroke-width: 1.5;" width="185" x="537" y="148"/><path d="M716,149 L716,158.6094 L706,168.6094 L537,168.6094 " fill="none" style="stroke: #000000; stroke-width: 1.5;"/><text fill="#000000" font-family="sans-serif" font-size="14" font-weight="bold" lengthAdjust="spacingAndGlyphs" textLength="169" x="540" y="163.5332">rlbox.agent.tab.gradient</text><!--cluster rlbox.env.narmedbandit--><rect fill="#FFFFFF" filter="url(#f4fk4y28r0p5y)" height="208" style="stroke: #000000; stroke-width: 1.5;" width="278" x="746" y="148"/><path d="M924,149 L924,158.6094 L914,168.6094 L746,168.6094 " fill="none" style="stroke: #000000; stroke-width: 1.5;"/><text fill="#000000" font-family="sans-serif" font-size="14" font-weight="bold" lengthAdjust="spacingAndGlyphs" textLength="168" x="749" y="163.5332">rlbox.env.narmedbandit</text><!--cluster rlbox.testbed--><rect fill="#FFFFFF" filter="url(#f4fk4y28r0p5y)" height="100" style="stroke: #000000; stroke-width: 1.5;" width="110" x="1099" y="24"/><path d="M1203,25 L1203,34.6094 L1193,44.6094 L1099,44.6094 " fill="none" style="stroke: #000000; stroke-width: 1.5;"/><text fill="#000000" font-family="sans-serif" font-size="14" font-weight="bold" lengthAdjust="spacingAndGlyphs" textLength="94" x="1102" y="39.5332">rlbox.testbed</text><!--cluster rlbox.testbed.narmedbandit--><rect fill="#FFFFFF" filter="url(#f4fk4y28r0p5y)" height="208" style="stroke: #000000; stroke-width: 1.5;" width="212" x="1048" y="148"/><path d="M1253,149 L1253,158.6094 L1243,168.6094 L1048,168.6094 " fill="none" style="stroke: #000000; stroke-width: 1.5;"/><text fill="#000000" font-family="sans-serif" font-size="14" font-weight="bold" lengthAdjust="spacingAndGlyphs" textLength="195" x="1051" y="163.5332">rlbox.testbed.narmedbandit</text><!--class AgentProgram--><rect fill="#FEFECE" filter="url(#f4fk4y28r0p5y)" height="48" id="AgentProgram" style="stroke: #A80036; stroke-width: 1.5;" width="112" x="482" y="60"/><ellipse cx="497" cy="76" fill="#B4A7E5" rx="11" ry="11" style="stroke: #A80036; stroke-width: 1.0;"/><path d="M497.9531,72.6406 L497.9531,79.2969 L499.6719,79.2969 Q500.2813,79.2969 500.5469,79.5313 Q500.8125,79.7656 500.8125,80.1563 Q500.8125,80.5313 500.5469,80.7656 Q500.2813,81 499.6719,81 L494.5313,81 Q493.9219,81 493.6563,80.7656 Q493.3906,80.5313 493.3906,80.1406 Q493.3906,79.7656 493.6563,79.5313 Q493.9219,79.2969 494.5313,79.2969 L496.25,79.2969 L496.25,72.6406 L494.5313,72.6406 Q493.9219,72.6406 493.6563,72.4063 Q493.3906,72.1719 493.3906,71.7813 Q493.3906,71.4063 493.6563,71.1719 Q493.9219,70.9375 494.5313,70.9375 L499.6719,70.9375 Q500.2813,70.9375 500.5469,71.1719 Q500.8125,71.4063 500.8125,71.7813 Q500.8125,72.1719 500.5469,72.4063 Q500.2813,72.6406 499.6719,72.6406 L497.9531,72.6406 Z "/><text fill="#000000" font-family="sans-serif" font-size="12" font-style="italic" lengthAdjust="spacingAndGlyphs" textLength="80" x="511" y="80.9102">AgentProgram</text><line style="stroke: #A80036; stroke-width: 1.5;" x1="483" x2="593" y1="92" y2="92"/><line style="stroke: #A80036; stroke-width: 1.5;" x1="483" x2="593" y1="100" y2="100"/><!--class Environment--><rect fill="#FEFECE" filter="url(#f4fk4y28r0p5y)" height="48" id="Environment" style="stroke: #A80036; stroke-width: 1.5;" width="102" x="629" y="60"/><ellipse cx="644" cy="76" fill="#B4A7E5" rx="11" ry="11" style="stroke: #A80036; stroke-width: 1.0;"/><path d="M644.9531,72.6406 L644.9531,79.2969 L646.6719,79.2969 Q647.2813,79.2969 647.5469,79.5313 Q647.8125,79.7656 647.8125,80.1563 Q647.8125,80.5313 647.5469,80.7656 Q647.2813,81 646.6719,81 L641.5313,81 Q640.9219,81 640.6563,80.7656 Q640.3906,80.5313 640.3906,80.1406 Q640.3906,79.7656 640.6563,79.5313 Q640.9219,79.2969 641.5313,79.2969 L643.25,79.2969 L643.25,72.6406 L641.5313,72.6406 Q640.9219,72.6406 640.6563,72.4063 Q640.3906,72.1719 640.3906,71.7813 Q640.3906,71.4063 640.6563,71.1719 Q640.9219,70.9375 641.5313,70.9375 L646.6719,70.9375 Q647.2813,70.9375 647.5469,71.1719 Q647.8125,71.4063 647.8125,71.7813 Q647.8125,72.1719 647.5469,72.4063 Q647.2813,72.6406 646.6719,72.6406 L644.9531,72.6406 Z "/><text fill="#000000" font-family="sans-serif" font-size="12" font-style="italic" lengthAdjust="spacingAndGlyphs" textLength="70" x="658" y="80.9102">Environment</text><line style="stroke: #A80036; stroke-width: 1.5;" x1="630" x2="730" y1="92" y2="92"/><line style="stroke: #A80036; stroke-width: 1.5;" x1="630" x2="730" y1="100" y2="100"/><!--class EpsilonGreedy--><rect fill="#FEFECE" filter="url(#f4fk4y28r0p5y)" height="48" id="EpsilonGreedy" style="stroke: #A80036; stroke-width: 1.5;" width="113" x="200.5" y="184"/><ellipse cx="215.5" cy="200" fill="#A9DCDF" rx="11" ry="11" style="stroke: #A80036; stroke-width: 1.0;"/><path d="M217.6875,201.7656 L213.5469,201.7656 L213.125,202.7969 L213.5469,202.7969 Q214.1563,202.7969 214.4219,203.0313 Q214.6875,203.2656 214.6875,203.6563 Q214.6875,204.0313 214.4219,204.2656 Q214.1563,204.5 213.5469,204.5 L211.25,204.5 Q210.6406,204.5 210.3828,204.2656 Q210.125,204.0313 210.125,203.6406 Q210.125,203.2656 210.3984,203.0234 Q210.6719,202.7813 211.2969,202.7969 L213.9688,196.1406 L212.8594,196.1406 Q212.25,196.1406 211.9844,195.9063 Q211.7188,195.6719 211.7188,195.2813 Q211.7188,194.9063 211.9844,194.6719 Q212.25,194.4375 212.8594,194.4375 L216.5313,194.4375 L219.9219,202.7969 Q220.5156,202.7969 220.7031,202.9375 Q221.0938,203.2031 221.0938,203.6563 Q221.0938,204.0313 220.8359,204.2656 Q220.5781,204.5 219.9688,204.5 L217.6719,204.5 Q217.0625,204.5 216.7969,204.2656 Q216.5313,204.0313 216.5313,203.6406 Q216.5313,203.2656 216.7969,203.0313 Q217.0625,202.7969 217.6719,202.7969 L218.0938,202.7969 L217.6875,201.7656 Z M216.9688,200.0625 L215.6094,196.6875 L214.2344,200.0625 L216.9688,200.0625 Z "/><text fill="#000000" font-family="sans-serif" font-size="12" font-style="italic" lengthAdjust="spacingAndGlyphs" textLength="81" x="229.5" y="204.9102">EpsilonGreedy</text><line style="stroke: #A80036; stroke-width: 1.5;" x1="201.5" x2="312.5" y1="216" y2="216"/><line style="stroke: #A80036; stroke-width: 1.5;" x1="201.5" x2="312.5" y1="224" y2="224"/><!--class SampleAverage--><rect fill="#FEFECE" filter="url(#f4fk4y28r0p5y)" height="48" id="SampleAverage" style="stroke: #A80036; stroke-width: 1.5;" width="119" x="38.5" y="292"/><ellipse cx="53.5" cy="308" fill="#ADD1B2" rx="11" ry="11" style="stroke: #A80036; stroke-width: 1.0;"/><path d="M56.2656,303.875 Q56.4219,303.6563 56.6094,303.5469 Q56.7969,303.4375 57.0156,303.4375 Q57.3906,303.4375 57.625,303.6953 Q57.8594,303.9531 57.8594,304.5625 L57.8594,306.0156 Q57.8594,306.625 57.625,306.8906 Q57.3906,307.1563 57.0156,307.1563 Q56.6719,307.1563 56.4688,306.9531 Q56.2656,306.7656 56.1563,306.25 Q56.1094,305.8906 55.9219,305.7031 Q55.5938,305.3281 54.9844,305.1094 Q54.375,304.8906 53.75,304.8906 Q52.9844,304.8906 52.3516,305.2188 Q51.7188,305.5469 51.2266,306.2969 Q50.7344,307.0469 50.7344,308.0781 L50.7344,309.1719 Q50.7344,310.4063 51.625,311.2266 Q52.5156,312.0469 54.1094,312.0469 Q55.0469,312.0469 55.7031,311.7969 Q56.0938,311.6406 56.5156,311.2031 Q56.7813,310.9375 56.9297,310.8594 Q57.0781,310.7813 57.2813,310.7813 Q57.6094,310.7813 57.8672,311.0391 Q58.125,311.2969 58.125,311.6406 Q58.125,311.9844 57.7813,312.3906 Q57.2813,312.9688 56.4844,313.2969 Q55.4063,313.75 54.1094,313.75 Q52.5938,313.75 51.3906,313.125 Q50.4063,312.625 49.7188,311.5547 Q49.0313,310.4844 49.0313,309.2031 L49.0313,308.0469 Q49.0313,306.7188 49.6484,305.5703 Q50.2656,304.4219 51.3594,303.8047 Q52.4531,303.1875 53.6875,303.1875 Q54.4219,303.1875 55.0703,303.3516 Q55.7188,303.5156 56.2656,303.875 Z "/><text fill="#000000" font-family="sans-serif" font-size="12" lengthAdjust="spacingAndGlyphs" textLength="87" x="67.5" y="312.9102">SampleAverage</text><line style="stroke: #A80036; stroke-width: 1.5;" x1="39.5" x2="156.5" y1="324" y2="324"/><line style="stroke: #A80036; stroke-width: 1.5;" x1="39.5" x2="156.5" y1="332" y2="332"/><!--class WeightedAverage--><rect fill="#FEFECE" filter="url(#f4fk4y28r0p5y)" height="48" id="WeightedAverage" style="stroke: #A80036; stroke-width: 1.5;" width="128" x="193" y="292"/><ellipse cx="208" cy="308" fill="#ADD1B2" rx="11" ry="11" style="stroke: #A80036; stroke-width: 1.0;"/><path d="M210.7656,303.875 Q210.9219,303.6563 211.1094,303.5469 Q211.2969,303.4375 211.5156,303.4375 Q211.8906,303.4375 212.125,303.6953 Q212.3594,303.9531 212.3594,304.5625 L212.3594,306.0156 Q212.3594,306.625 212.125,306.8906 Q211.8906,307.1563 211.5156,307.1563 Q211.1719,307.1563 210.9688,306.9531 Q210.7656,306.7656 210.6563,306.25 Q210.6094,305.8906 210.4219,305.7031 Q210.0938,305.3281 209.4844,305.1094 Q208.875,304.8906 208.25,304.8906 Q207.4844,304.8906 206.8516,305.2188 Q206.2188,305.5469 205.7266,306.2969 Q205.2344,307.0469 205.2344,308.0781 L205.2344,309.1719 Q205.2344,310.4063 206.125,311.2266 Q207.0156,312.0469 208.6094,312.0469 Q209.5469,312.0469 210.2031,311.7969 Q210.5938,311.6406 211.0156,311.2031 Q211.2813,310.9375 211.4297,310.8594 Q211.5781,310.7813 211.7813,310.7813 Q212.1094,310.7813 212.3672,311.0391 Q212.625,311.2969 212.625,311.6406 Q212.625,311.9844 212.2813,312.3906 Q211.7813,312.9688 210.9844,313.2969 Q209.9063,313.75 208.6094,313.75 Q207.0938,313.75 205.8906,313.125 Q204.9063,312.625 204.2188,311.5547 Q203.5313,310.4844 203.5313,309.2031 L203.5313,308.0469 Q203.5313,306.7188 204.1484,305.5703 Q204.7656,304.4219 205.8594,303.8047 Q206.9531,303.1875 208.1875,303.1875 Q208.9219,303.1875 209.5703,303.3516 Q210.2188,303.5156 210.7656,303.875 Z "/><text fill="#000000" font-family="sans-serif" font-size="12" lengthAdjust="spacingAndGlyphs" textLength="96" x="222" y="312.9102">WeightedAverage</text><line style="stroke: #A80036; stroke-width: 1.5;" x1="194" x2="320" y1="324" y2="324"/><line style="stroke: #A80036; stroke-width: 1.5;" x1="194" x2="320" y1="332" y2="332"/><!--class WeightedAverageNBias--><rect fill="#FEFECE" filter="url(#f4fk4y28r0p5y)" height="48" id="WeightedAverageNBias" style="stroke: #A80036; stroke-width: 1.5;" width="162" x="159" y="400"/><ellipse cx="174" cy="416" fill="#ADD1B2" rx="11" ry="11" style="stroke: #A80036; stroke-width: 1.0;"/><path d="M176.7656,411.875 Q176.9219,411.6563 177.1094,411.5469 Q177.2969,411.4375 177.5156,411.4375 Q177.8906,411.4375 178.125,411.6953 Q178.3594,411.9531 178.3594,412.5625 L178.3594,414.0156 Q178.3594,414.625 178.125,414.8906 Q177.8906,415.1563 177.5156,415.1563 Q177.1719,415.1563 176.9688,414.9531 Q176.7656,414.7656 176.6563,414.25 Q176.6094,413.8906 176.4219,413.7031 Q176.0938,413.3281 175.4844,413.1094 Q174.875,412.8906 174.25,412.8906 Q173.4844,412.8906 172.8516,413.2188 Q172.2188,413.5469 171.7266,414.2969 Q171.2344,415.0469 171.2344,416.0781 L171.2344,417.1719 Q171.2344,418.4063 172.125,419.2266 Q173.0156,420.0469 174.6094,420.0469 Q175.5469,420.0469 176.2031,419.7969 Q176.5938,419.6406 177.0156,419.2031 Q177.2813,418.9375 177.4297,418.8594 Q177.5781,418.7813 177.7813,418.7813 Q178.1094,418.7813 178.3672,419.0391 Q178.625,419.2969 178.625,419.6406 Q178.625,419.9844 178.2813,420.3906 Q177.7813,420.9688 176.9844,421.2969 Q175.9063,421.75 174.6094,421.75 Q173.0938,421.75 171.8906,421.125 Q170.9063,420.625 170.2188,419.5547 Q169.5313,418.4844 169.5313,417.2031 L169.5313,416.0469 Q169.5313,414.7188 170.1484,413.5703 Q170.7656,412.4219 171.8594,411.8047 Q172.9531,411.1875 174.1875,411.1875 Q174.9219,411.1875 175.5703,411.3516 Q176.2188,411.5156 176.7656,411.875 Z "/><text fill="#000000" font-family="sans-serif" font-size="12" lengthAdjust="spacingAndGlyphs" textLength="130" x="188" y="420.9102">WeightedAverageNBias</text><line style="stroke: #A80036; stroke-width: 1.5;" x1="160" x2="320" y1="432" y2="432"/><line style="stroke: #A80036; stroke-width: 1.5;" x1="160" x2="320" y1="440" y2="440"/><!--class Ucb1--><rect fill="#FEFECE" filter="url(#f4fk4y28r0p5y)" height="48" id="Ucb1" style="stroke: #A80036; stroke-width: 1.5;" width="61" x="435.5" y="184"/><ellipse cx="450.5" cy="200" fill="#ADD1B2" rx="11" ry="11" style="stroke: #A80036; stroke-width: 1.0;"/><path d="M453.2656,195.875 Q453.4219,195.6563 453.6094,195.5469 Q453.7969,195.4375 454.0156,195.4375 Q454.3906,195.4375 454.625,195.6953 Q454.8594,195.9531 454.8594,196.5625 L454.8594,198.0156 Q454.8594,198.625 454.625,198.8906 Q454.3906,199.1563 454.0156,199.1563 Q453.6719,199.1563 453.4688,198.9531 Q453.2656,198.7656 453.1563,198.25 Q453.1094,197.8906 452.9219,197.7031 Q452.5938,197.3281 451.9844,197.1094 Q451.375,196.8906 450.75,196.8906 Q449.9844,196.8906 449.3516,197.2188 Q448.7188,197.5469 448.2266,198.2969 Q447.7344,199.0469 447.7344,200.0781 L447.7344,201.1719 Q447.7344,202.4063 448.625,203.2266 Q449.5156,204.0469 451.1094,204.0469 Q452.0469,204.0469 452.7031,203.7969 Q453.0938,203.6406 453.5156,203.2031 Q453.7813,202.9375 453.9297,202.8594 Q454.0781,202.7813 454.2813,202.7813 Q454.6094,202.7813 454.8672,203.0391 Q455.125,203.2969 455.125,203.6406 Q455.125,203.9844 454.7813,204.3906 Q454.2813,204.9688 453.4844,205.2969 Q452.4063,205.75 451.1094,205.75 Q449.5938,205.75 448.3906,205.125 Q447.4063,204.625 446.7188,203.5547 Q446.0313,202.4844 446.0313,201.2031 L446.0313,200.0469 Q446.0313,198.7188 446.6484,197.5703 Q447.2656,196.4219 448.3594,195.8047 Q449.4531,195.1875 450.6875,195.1875 Q451.4219,195.1875 452.0703,195.3516 Q452.7188,195.5156 453.2656,195.875 Z "/><text fill="#000000" font-family="sans-serif" font-size="12" lengthAdjust="spacingAndGlyphs" textLength="29" x="464.5" y="204.9102">Ucb1</text><line style="stroke: #A80036; stroke-width: 1.5;" x1="436.5" x2="495.5" y1="216" y2="216"/><line style="stroke: #A80036; stroke-width: 1.5;" x1="436.5" x2="495.5" y1="224" y2="224"/><!--class GradientBandit--><rect fill="#FEFECE" filter="url(#f4fk4y28r0p5y)" height="48" id="GradientBandit" style="stroke: #A80036; stroke-width: 1.5;" width="114" x="553" y="184"/><ellipse cx="568" cy="200" fill="#ADD1B2" rx="11" ry="11" style="stroke: #A80036; stroke-width: 1.0;"/><path d="M570.7656,195.875 Q570.9219,195.6563 571.1094,195.5469 Q571.2969,195.4375 571.5156,195.4375 Q571.8906,195.4375 572.125,195.6953 Q572.3594,195.9531 572.3594,196.5625 L572.3594,198.0156 Q572.3594,198.625 572.125,198.8906 Q571.8906,199.1563 571.5156,199.1563 Q571.1719,199.1563 570.9688,198.9531 Q570.7656,198.7656 570.6563,198.25 Q570.6094,197.8906 570.4219,197.7031 Q570.0938,197.3281 569.4844,197.1094 Q568.875,196.8906 568.25,196.8906 Q567.4844,196.8906 566.8516,197.2188 Q566.2188,197.5469 565.7266,198.2969 Q565.2344,199.0469 565.2344,200.0781 L565.2344,201.1719 Q565.2344,202.4063 566.125,203.2266 Q567.0156,204.0469 568.6094,204.0469 Q569.5469,204.0469 570.2031,203.7969 Q570.5938,203.6406 571.0156,203.2031 Q571.2813,202.9375 571.4297,202.8594 Q571.5781,202.7813 571.7813,202.7813 Q572.1094,202.7813 572.3672,203.0391 Q572.625,203.2969 572.625,203.6406 Q572.625,203.9844 572.2813,204.3906 Q571.7813,204.9688 570.9844,205.2969 Q569.9063,205.75 568.6094,205.75 Q567.0938,205.75 565.8906,205.125 Q564.9063,204.625 564.2188,203.5547 Q563.5313,202.4844 563.5313,201.2031 L563.5313,200.0469 Q563.5313,198.7188 564.1484,197.5703 Q564.7656,196.4219 565.8594,195.8047 Q566.9531,195.1875 568.1875,195.1875 Q568.9219,195.1875 569.5703,195.3516 Q570.2188,195.5156 570.7656,195.875 Z "/><text fill="#000000" font-family="sans-serif" font-size="12" lengthAdjust="spacingAndGlyphs" textLength="82" x="582" y="204.9102">GradientBandit</text><line style="stroke: #A80036; stroke-width: 1.5;" x1="554" x2="666" y1="216" y2="216"/><line style="stroke: #A80036; stroke-width: 1.5;" x1="554" x2="666" y1="224" y2="224"/><!--class Bandit--><rect fill="#FEFECE" filter="url(#f4fk4y28r0p5y)" height="48" id="Bandit" style="stroke: #A80036; stroke-width: 1.5;" width="67" x="762.5" y="292"/><ellipse cx="777.5" cy="308" fill="#ADD1B2" rx="11" ry="11" style="stroke: #A80036; stroke-width: 1.0;"/><path d="M780.2656,303.875 Q780.4219,303.6563 780.6094,303.5469 Q780.7969,303.4375 781.0156,303.4375 Q781.3906,303.4375 781.625,303.6953 Q781.8594,303.9531 781.8594,304.5625 L781.8594,306.0156 Q781.8594,306.625 781.625,306.8906 Q781.3906,307.1563 781.0156,307.1563 Q780.6719,307.1563 780.4688,306.9531 Q780.2656,306.7656 780.1563,306.25 Q780.1094,305.8906 779.9219,305.7031 Q779.5938,305.3281 778.9844,305.1094 Q778.375,304.8906 777.75,304.8906 Q776.9844,304.8906 776.3516,305.2188 Q775.7188,305.5469 775.2266,306.2969 Q774.7344,307.0469 774.7344,308.0781 L774.7344,309.1719 Q774.7344,310.4063 775.625,311.2266 Q776.5156,312.0469 778.1094,312.0469 Q779.0469,312.0469 779.7031,311.7969 Q780.0938,311.6406 780.5156,311.2031 Q780.7813,310.9375 780.9297,310.8594 Q781.0781,310.7813 781.2813,310.7813 Q781.6094,310.7813 781.8672,311.0391 Q782.125,311.2969 782.125,311.6406 Q782.125,311.9844 781.7813,312.3906 Q781.2813,312.9688 780.4844,313.2969 Q779.4063,313.75 778.1094,313.75 Q776.5938,313.75 775.3906,313.125 Q774.4063,312.625 773.7188,311.5547 Q773.0313,310.4844 773.0313,309.2031 L773.0313,308.0469 Q773.0313,306.7188 773.6484,305.5703 Q774.2656,304.4219 775.3594,303.8047 Q776.4531,303.1875 777.6875,303.1875 Q778.4219,303.1875 779.0703,303.3516 Q779.7188,303.5156 780.2656,303.875 Z "/><text fill="#000000" font-family="sans-serif" font-size="12" lengthAdjust="spacingAndGlyphs" textLength="35" x="791.5" y="312.9102">Bandit</text><line style="stroke: #A80036; stroke-width: 1.5;" x1="763.5" x2="828.5" y1="324" y2="324"/><line style="stroke: #A80036; stroke-width: 1.5;" x1="763.5" x2="828.5" y1="332" y2="332"/><!--class NonstationaryBandit--><rect fill="#FEFECE" filter="url(#f4fk4y28r0p5y)" height="48" id="NonstationaryBandit" style="stroke: #A80036; stroke-width: 1.5;" width="143" x="864.5" y="292"/><ellipse cx="879.5" cy="308" fill="#ADD1B2" rx="11" ry="11" style="stroke: #A80036; stroke-width: 1.0;"/><path d="M882.2656,303.875 Q882.4219,303.6563 882.6094,303.5469 Q882.7969,303.4375 883.0156,303.4375 Q883.3906,303.4375 883.625,303.6953 Q883.8594,303.9531 883.8594,304.5625 L883.8594,306.0156 Q883.8594,306.625 883.625,306.8906 Q883.3906,307.1563 883.0156,307.1563 Q882.6719,307.1563 882.4688,306.9531 Q882.2656,306.7656 882.1563,306.25 Q882.1094,305.8906 881.9219,305.7031 Q881.5938,305.3281 880.9844,305.1094 Q880.375,304.8906 879.75,304.8906 Q878.9844,304.8906 878.3516,305.2188 Q877.7188,305.5469 877.2266,306.2969 Q876.7344,307.0469 876.7344,308.0781 L876.7344,309.1719 Q876.7344,310.4063 877.625,311.2266 Q878.5156,312.0469 880.1094,312.0469 Q881.0469,312.0469 881.7031,311.7969 Q882.0938,311.6406 882.5156,311.2031 Q882.7813,310.9375 882.9297,310.8594 Q883.0781,310.7813 883.2813,310.7813 Q883.6094,310.7813 883.8672,311.0391 Q884.125,311.2969 884.125,311.6406 Q884.125,311.9844 883.7813,312.3906 Q883.2813,312.9688 882.4844,313.2969 Q881.4063,313.75 880.1094,313.75 Q878.5938,313.75 877.3906,313.125 Q876.4063,312.625 875.7188,311.5547 Q875.0313,310.4844 875.0313,309.2031 L875.0313,308.0469 Q875.0313,306.7188 875.6484,305.5703 Q876.2656,304.4219 877.3594,303.8047 Q878.4531,303.1875 879.6875,303.1875 Q880.4219,303.1875 881.0703,303.3516 Q881.7188,303.5156 882.2656,303.875 Z "/><text fill="#000000" font-family="sans-serif" font-size="12" lengthAdjust="spacingAndGlyphs" textLength="111" x="893.5" y="312.9102">NonstationaryBandit</text><line style="stroke: #A80036; stroke-width: 1.5;" x1="865.5" x2="1006.5" y1="324" y2="324"/><line style="stroke: #A80036; stroke-width: 1.5;" x1="865.5" x2="1006.5" y1="332" y2="332"/><!--class NArmedBanditEnv--><rect fill="#FEFECE" filter="url(#f4fk4y28r0p5y)" height="48" id="NArmedBanditEnv" style="stroke: #A80036; stroke-width: 1.5;" width="132" x="762" y="184"/><ellipse cx="777" cy="200" fill="#ADD1B2" rx="11" ry="11" style="stroke: #A80036; stroke-width: 1.0;"/><path d="M779.7656,195.875 Q779.9219,195.6563 780.1094,195.5469 Q780.2969,195.4375 780.5156,195.4375 Q780.8906,195.4375 781.125,195.6953 Q781.3594,195.9531 781.3594,196.5625 L781.3594,198.0156 Q781.3594,198.625 781.125,198.8906 Q780.8906,199.1563 780.5156,199.1563 Q780.1719,199.1563 779.9688,198.9531 Q779.7656,198.7656 779.6563,198.25 Q779.6094,197.8906 779.4219,197.7031 Q779.0938,197.3281 778.4844,197.1094 Q777.875,196.8906 777.25,196.8906 Q776.4844,196.8906 775.8516,197.2188 Q775.2188,197.5469 774.7266,198.2969 Q774.2344,199.0469 774.2344,200.0781 L774.2344,201.1719 Q774.2344,202.4063 775.125,203.2266 Q776.0156,204.0469 777.6094,204.0469 Q778.5469,204.0469 779.2031,203.7969 Q779.5938,203.6406 780.0156,203.2031 Q780.2813,202.9375 780.4297,202.8594 Q780.5781,202.7813 780.7813,202.7813 Q781.1094,202.7813 781.3672,203.0391 Q781.625,203.2969 781.625,203.6406 Q781.625,203.9844 781.2813,204.3906 Q780.7813,204.9688 779.9844,205.2969 Q778.9063,205.75 777.6094,205.75 Q776.0938,205.75 774.8906,205.125 Q773.9063,204.625 773.2188,203.5547 Q772.5313,202.4844 772.5313,201.2031 L772.5313,200.0469 Q772.5313,198.7188 773.1484,197.5703 Q773.7656,196.4219 774.8594,195.8047 Q775.9531,195.1875 777.1875,195.1875 Q777.9219,195.1875 778.5703,195.3516 Q779.2188,195.5156 779.7656,195.875 Z "/><text fill="#000000" font-family="sans-serif" font-size="12" lengthAdjust="spacingAndGlyphs" textLength="100" x="791" y="204.9102">NArmedBanditEnv</text><line style="stroke: #A80036; stroke-width: 1.5;" x1="763" x2="893" y1="216" y2="216"/><line style="stroke: #A80036; stroke-width: 1.5;" x1="763" x2="893" y1="224" y2="224"/><!--class Testbed--><rect fill="#FEFECE" filter="url(#f4fk4y28r0p5y)" height="48" id="Testbed" style="stroke: #A80036; stroke-width: 1.5;" width="77" x="1115.5" y="60"/><ellipse cx="1130.5" cy="76" fill="#B4A7E5" rx="11" ry="11" style="stroke: #A80036; stroke-width: 1.0;"/><path d="M1131.4531,72.6406 L1131.4531,79.2969 L1133.1719,79.2969 Q1133.7813,79.2969 1134.0469,79.5313 Q1134.3125,79.7656 1134.3125,80.1563 Q1134.3125,80.5313 1134.0469,80.7656 Q1133.7813,81 1133.1719,81 L1128.0313,81 Q1127.4219,81 1127.1563,80.7656 Q1126.8906,80.5313 1126.8906,80.1406 Q1126.8906,79.7656 1127.1563,79.5313 Q1127.4219,79.2969 1128.0313,79.2969 L1129.75,79.2969 L1129.75,72.6406 L1128.0313,72.6406 Q1127.4219,72.6406 1127.1563,72.4063 Q1126.8906,72.1719 1126.8906,71.7813 Q1126.8906,71.4063 1127.1563,71.1719 Q1127.4219,70.9375 1128.0313,70.9375 L1133.1719,70.9375 Q1133.7813,70.9375 1134.0469,71.1719 Q1134.3125,71.4063 1134.3125,71.7813 Q1134.3125,72.1719 1134.0469,72.4063 Q1133.7813,72.6406 1133.1719,72.6406 L1131.4531,72.6406 Z "/><text fill="#000000" font-family="sans-serif" font-size="12" font-style="italic" lengthAdjust="spacingAndGlyphs" textLength="45" x="1144.5" y="80.9102">Testbed</text><line style="stroke: #A80036; stroke-width: 1.5;" x1="1116.5" x2="1191.5" y1="92" y2="92"/><line style="stroke: #A80036; stroke-width: 1.5;" x1="1116.5" x2="1191.5" y1="100" y2="100"/><!--class NArmedBanditTestbed--><rect fill="#FEFECE" filter="url(#f4fk4y28r0p5y)" height="48" id="NArmedBanditTestbed" style="stroke: #A80036; stroke-width: 1.5;" width="157" x="1075.5" y="184"/><ellipse cx="1090.5" cy="200" fill="#ADD1B2" rx="11" ry="11" style="stroke: #A80036; stroke-width: 1.0;"/><path d="M1093.2656,195.875 Q1093.4219,195.6563 1093.6094,195.5469 Q1093.7969,195.4375 1094.0156,195.4375 Q1094.3906,195.4375 1094.625,195.6953 Q1094.8594,195.9531 1094.8594,196.5625 L1094.8594,198.0156 Q1094.8594,198.625 1094.625,198.8906 Q1094.3906,199.1563 1094.0156,199.1563 Q1093.6719,199.1563 1093.4688,198.9531 Q1093.2656,198.7656 1093.1563,198.25 Q1093.1094,197.8906 1092.9219,197.7031 Q1092.5938,197.3281 1091.9844,197.1094 Q1091.375,196.8906 1090.75,196.8906 Q1089.9844,196.8906 1089.3516,197.2188 Q1088.7188,197.5469 1088.2266,198.2969 Q1087.7344,199.0469 1087.7344,200.0781 L1087.7344,201.1719 Q1087.7344,202.4063 1088.625,203.2266 Q1089.5156,204.0469 1091.1094,204.0469 Q1092.0469,204.0469 1092.7031,203.7969 Q1093.0938,203.6406 1093.5156,203.2031 Q1093.7813,202.9375 1093.9297,202.8594 Q1094.0781,202.7813 1094.2813,202.7813 Q1094.6094,202.7813 1094.8672,203.0391 Q1095.125,203.2969 1095.125,203.6406 Q1095.125,203.9844 1094.7813,204.3906 Q1094.2813,204.9688 1093.4844,205.2969 Q1092.4063,205.75 1091.1094,205.75 Q1089.5938,205.75 1088.3906,205.125 Q1087.4063,204.625 1086.7188,203.5547 Q1086.0313,202.4844 1086.0313,201.2031 L1086.0313,200.0469 Q1086.0313,198.7188 1086.6484,197.5703 Q1087.2656,196.4219 1088.3594,195.8047 Q1089.4531,195.1875 1090.6875,195.1875 Q1091.4219,195.1875 1092.0703,195.3516 Q1092.7188,195.5156 1093.2656,195.875 Z "/><text fill="#000000" font-family="sans-serif" font-size="12" lengthAdjust="spacingAndGlyphs" textLength="125" x="1104.5" y="204.9102">NArmedBanditTestbed</text><line style="stroke: #A80036; stroke-width: 1.5;" x1="1076.5" x2="1231.5" y1="216" y2="216"/><line style="stroke: #A80036; stroke-width: 1.5;" x1="1076.5" x2="1231.5" y1="224" y2="224"/><!--class NArmedBanditParamStudy--><rect fill="#FEFECE" filter="url(#f4fk4y28r0p5y)" height="48" id="NArmedBanditParamStudy" style="stroke: #A80036; stroke-width: 1.5;" width="179" x="1064.5" y="292"/><ellipse cx="1079.5" cy="308" fill="#ADD1B2" rx="11" ry="11" style="stroke: #A80036; stroke-width: 1.0;"/><path d="M1082.2656,303.875 Q1082.4219,303.6563 1082.6094,303.5469 Q1082.7969,303.4375 1083.0156,303.4375 Q1083.3906,303.4375 1083.625,303.6953 Q1083.8594,303.9531 1083.8594,304.5625 L1083.8594,306.0156 Q1083.8594,306.625 1083.625,306.8906 Q1083.3906,307.1563 1083.0156,307.1563 Q1082.6719,307.1563 1082.4688,306.9531 Q1082.2656,306.7656 1082.1563,306.25 Q1082.1094,305.8906 1081.9219,305.7031 Q1081.5938,305.3281 1080.9844,305.1094 Q1080.375,304.8906 1079.75,304.8906 Q1078.9844,304.8906 1078.3516,305.2188 Q1077.7188,305.5469 1077.2266,306.2969 Q1076.7344,307.0469 1076.7344,308.0781 L1076.7344,309.1719 Q1076.7344,310.4063 1077.625,311.2266 Q1078.5156,312.0469 1080.1094,312.0469 Q1081.0469,312.0469 1081.7031,311.7969 Q1082.0938,311.6406 1082.5156,311.2031 Q1082.7813,310.9375 1082.9297,310.8594 Q1083.0781,310.7813 1083.2813,310.7813 Q1083.6094,310.7813 1083.8672,311.0391 Q1084.125,311.2969 1084.125,311.6406 Q1084.125,311.9844 1083.7813,312.3906 Q1083.2813,312.9688 1082.4844,313.2969 Q1081.4063,313.75 1080.1094,313.75 Q1078.5938,313.75 1077.3906,313.125 Q1076.4063,312.625 1075.7188,311.5547 Q1075.0313,310.4844 1075.0313,309.2031 L1075.0313,308.0469 Q1075.0313,306.7188 1075.6484,305.5703 Q1076.2656,304.4219 1077.3594,303.8047 Q1078.4531,303.1875 1079.6875,303.1875 Q1080.4219,303.1875 1081.0703,303.3516 Q1081.7188,303.5156 1082.2656,303.875 Z "/><text fill="#000000" font-family="sans-serif" font-size="12" lengthAdjust="spacingAndGlyphs" textLength="147" x="1093.5" y="312.9102">NArmedBanditParamStudy</text><line style="stroke: #A80036; stroke-width: 1.5;" x1="1065.5" x2="1242.5" y1="324" y2="324"/><line style="stroke: #A80036; stroke-width: 1.5;" x1="1065.5" x2="1242.5" y1="332" y2="332"/><!--link AgentProgram to EpsilonGreedy--><path d="M466.324,116.119 C417.759,137.204 354.625,164.615 310.444,183.796 " fill="none" id="AgentProgram-EpsilonGreedy" style="stroke: #A80036; stroke-width: 1.0;"/><polygon fill="none" points="463.682,109.635,484.816,108.091,469.258,122.477,463.682,109.635" style="stroke: #A80036; stroke-width: 1.0;"/><!--link AgentProgram to Ucb1--><path d="M514.064,125.559 C502.629,144.935 489.357,167.422 479.661,183.852 " fill="none" id="AgentProgram-Ucb1" style="stroke: #A80036; stroke-width: 1.0;"/><polygon fill="none" points="508.094,121.901,524.288,108.234,520.151,129.016,508.094,121.901" style="stroke: #A80036; stroke-width: 1.0;"/><!--link AgentProgram to GradientBandit--><path d="M561.936,125.559 C573.371,144.935 586.643,167.422 596.339,183.852 " fill="none" id="AgentProgram-GradientBandit" style="stroke: #A80036; stroke-width: 1.0;"/><polygon fill="none" points="555.849,129.016,551.712,108.234,567.906,121.901,555.849,129.016" style="stroke: #A80036; stroke-width: 1.0;"/><!--link EpsilonGreedy to SampleAverage--><path d="M205.581,243.279 C181.74,259.173 154.032,277.645 132.707,291.862 " fill="none" id="EpsilonGreedy-SampleAverage" style="stroke: #A80036; stroke-width: 1.0;"/><polygon fill="none" points="201.975,237.27,222.499,232,209.741,248.919,201.975,237.27" style="stroke: #A80036; stroke-width: 1.0;"/><!--link EpsilonGreedy to WeightedAverage--><path d="M257,252.024 C257,265.579 257,280.038 257,291.678 " fill="none" id="EpsilonGreedy-WeightedAverage" style="stroke: #A80036; stroke-width: 1.0;"/><polygon fill="none" points="250,252,257,232,264,252,250,252" style="stroke: #A80036; stroke-width: 1.0;"/><!--link WeightedAverage to WeightedAverageNBias--><path d="M250.1,360.024 C247.926,373.579 245.607,388.0381 243.74,399.6784 " fill="none" id="WeightedAverage-WeightedAverageNBias" style="stroke: #A80036; stroke-width: 1.0;"/><polygon fill="none" points="243.232,358.64,253.311,340,257.056,360.857,243.232,358.64" style="stroke: #A80036; stroke-width: 1.0;"/><!--link Environment to NArmedBanditEnv--><path d="M723.823,121.124 C748.446,141.421 778.447,166.152 799.919,183.852 " fill="none" id="Environment-NArmedBanditEnv" style="stroke: #A80036; stroke-width: 1.0;"/><polygon fill="none" points="719.166,126.357,708.186,108.234,728.071,115.555,719.166,126.357" style="stroke: #A80036; stroke-width: 1.0;"/><!--link NArmedBanditEnv to Bandit--><path d="M821.056,232 C816.226,248.003 809.752,269.446 804.595,286.528 " fill="none" id="NArmedBanditEnv-Bandit" style="stroke: #A80036; stroke-width: 1.0;"/><polygon fill="#A80036" points="803.04,291.678,809.4711,284.2187,804.4855,286.8915,801.8127,281.9059,803.04,291.678" style="stroke: #A80036; stroke-width: 1.0;"/><!--link NArmedBanditEnv to NonstationaryBandit--><path d="M851.434,232 C868.161,248.417 890.72,270.559 908.332,287.844 " fill="none" id="NArmedBanditEnv-NonstationaryBandit" style="stroke: #A80036; stroke-width: 1.0;"/><polygon fill="#A80036" points="912.238,291.678,908.6172,282.5189,908.6698,288.1755,903.0132,288.228,912.238,291.678" style="stroke: #A80036; stroke-width: 1.0;"/><!--link Testbed to NArmedBanditTestbed--><path d="M1154,128.275 C1154,147.008 1154,168.185 1154,183.852 " fill="none" id="Testbed-NArmedBanditTestbed" style="stroke: #A80036; stroke-width: 1.0;"/><polygon fill="none" points="1147,128.234,1154,108.234,1161,128.234,1147,128.234" style="stroke: #A80036; stroke-width: 1.0;"/><!--link NArmedBanditTestbed to NArmedBanditParamStudy--><path d="M1154,252.024 C1154,265.579 1154,280.038 1154,291.678 " fill="none" id="NArmedBanditTestbed-NArmedBanditParamStudy" style="stroke: #A80036; stroke-width: 1.0;"/><polygon fill="none" points="1147,252,1154,232,1161,252,1147,252" style="stroke: #A80036; stroke-width: 1.0;"/><!--
@startuml
skinparam packageStyle Frame

package rlbox.core {
    interface AgentProgram
    interface Environment
}

package rlbox.agent.tab.epsilongreedy {
    abstract class EpsilonGreedy
    class SampleAverage
    class WeightedAverage
    class WeightedAverageNBias
}

package rlbox.agent.tab.ucb {
    class Ucb1
}

package rlbox.agent.tab.gradient {
    class GradientBandit
}

package rlbox.env.narmedbandit {
    class Bandit
    class NonstationaryBandit
    class NArmedBanditEnv
}

package rlbox.testbed {
    interface Testbed
}

package rlbox.testbed.narmedbandit {
    class NArmedBanditTestbed
    class NArmedBanditParamStudy
}

AgentProgram <|- - EpsilonGreedy
AgentProgram <|- - Ucb1
AgentProgram <|- - GradientBandit
EpsilonGreedy <|- - SampleAverage
EpsilonGreedy <|- - WeightedAverage
WeightedAverage <|- - WeightedAverageNBias

Environment <|- - NArmedBanditEnv

NArmedBanditEnv - -> Bandit
NArmedBanditEnv - -> NonstationaryBandit

Testbed <|- - NArmedBanditTestbed
NArmedBanditTestbed <|- - NArmedBanditParamStudy

@enduml

PlantUML version 1.2018.13(Mon Nov 26 18:11:51 CET 2018)
(APACHE source distribution)
Java Runtime: Java(TM) SE Runtime Environment
JVM: Java HotSpot(TM) 64-Bit Server VM
Java Version: 10.0.2+13
Operating System: Windows 10
OS Version: 10.0
Default Encoding: Cp1250
Language: pl
Country: PL
--></g></svg>