<?xml version="1.0" encoding="UTF-8" standalone="no"?><svg xmlns="http://www.w3.org/2000/svg" xmlns:xlink="http://www.w3.org/1999/xlink" contentScriptType="application/ecmascript" contentStyleType="text/css" height="997px" preserveAspectRatio="none" style="width:881px;height:997px;" version="1.1" viewBox="0 0 881 997" width="881px" zoomAndPan="magnify"><defs><filter height="300%" id="f1nsuparm8shnx" width="300%" x="-1" y="-1"><feGaussianBlur result="blurOut" stdDeviation="2.0"/><feColorMatrix in="blurOut" result="blurOut2" type="matrix" values="0 0 0 0 0 0 0 0 0 0 0 0 0 0 0 0 0 0 .4 0"/><feOffset dx="4.0" dy="4.0" in="blurOut2" result="blurOut3"/><feBlend in="SourceGraphic" in2="blurOut3" mode="normal"/></filter></defs><g><!--cluster rlbox.core--><rect fill="#FFFFFF" filter="url(#f1nsuparm8shnx)" height="770" style="stroke: #000000; stroke-width: 1.5;" width="490" x="22" y="216"/><path d="M104,217 L104,226.6094 L94,236.6094 L22,236.6094 " fill="none" style="stroke: #000000; stroke-width: 1.5;"/><text fill="#000000" font-family="sans-serif" font-size="14" font-weight="bold" lengthAdjust="spacingAndGlyphs" textLength="72" x="25" y="231.5332">rlbox.core</text><!--cluster rlbox.testbed.sink--><rect fill="#FFFFFF" filter="url(#f1nsuparm8shnx)" height="226" style="stroke: #000000; stroke-width: 1.5;" width="260" x="536" y="216"/><path d="M673,217 L673,226.6094 L663,236.6094 L536,236.6094 " fill="none" style="stroke: #000000; stroke-width: 1.5;"/><text fill="#000000" font-family="sans-serif" font-size="14" font-weight="bold" lengthAdjust="spacingAndGlyphs" textLength="127" x="539" y="231.5332">rlbox.testbed.sink</text><!--cluster rlbox.testbed--><rect fill="#FFFFFF" filter="url(#f1nsuparm8shnx)" height="142" style="stroke: #000000; stroke-width: 1.5;" width="218" x="526" y="24"/><path d="M630,25 L630,34.6094 L620,44.6094 L526,44.6094 " fill="none" style="stroke: #000000; stroke-width: 1.5;"/><text fill="#000000" font-family="sans-serif" font-size="14" font-weight="bold" lengthAdjust="spacingAndGlyphs" textLength="94" x="529" y="39.5332">rlbox.testbed</text><!--class AgentProgram--><rect fill="#FEFECE" filter="url(#f1nsuparm8shnx)" height="61.8359" id="AgentProgram" style="stroke: #A80036; stroke-width: 1.5;" width="125" x="370.5" y="581"/><ellipse cx="391.35" cy="597" fill="#B4A7E5" rx="11" ry="11" style="stroke: #A80036; stroke-width: 1.0;"/><path d="M392.3031,593.6406 L392.3031,600.2969 L394.0219,600.2969 Q394.6313,600.2969 394.8969,600.5313 Q395.1625,600.7656 395.1625,601.1563 Q395.1625,601.5313 394.8969,601.7656 Q394.6313,602 394.0219,602 L388.8813,602 Q388.2719,602 388.0063,601.7656 Q387.7406,601.5313 387.7406,601.1406 Q387.7406,600.7656 388.0063,600.5313 Q388.2719,600.2969 388.8813,600.2969 L390.6,600.2969 L390.6,593.6406 L388.8813,593.6406 Q388.2719,593.6406 388.0063,593.4063 Q387.7406,593.1719 387.7406,592.7813 Q387.7406,592.4063 388.0063,592.1719 Q388.2719,591.9375 388.8813,591.9375 L394.0219,591.9375 Q394.6313,591.9375 394.8969,592.1719 Q395.1625,592.4063 395.1625,592.7813 Q395.1625,593.1719 394.8969,593.4063 Q394.6313,593.6406 394.0219,593.6406 L392.3031,593.6406 Z "/><text fill="#000000" font-family="sans-serif" font-size="12" font-style="italic" lengthAdjust="spacingAndGlyphs" textLength="80" x="406.65" y="601.9102">AgentProgram</text><line style="stroke: #A80036; stroke-width: 1.5;" x1="371.5" x2="494.5" y1="613" y2="613"/><line style="stroke: #A80036; stroke-width: 1.5;" x1="371.5" x2="494.5" y1="621" y2="621"/><text fill="#000000" font-family="sans-serif" font-size="11" lengthAdjust="spacingAndGlyphs" textLength="113" x="376.5" y="636.4189">action call(observation)</text><!--class Environment--><rect fill="#FEFECE" filter="url(#f1nsuparm8shnx)" height="61.8359" id="Environment" style="stroke: #A80036; stroke-width: 1.5;" width="102" x="107" y="673"/><ellipse cx="122" cy="689" fill="#B4A7E5" rx="11" ry="11" style="stroke: #A80036; stroke-width: 1.0;"/><path d="M122.9531,685.6406 L122.9531,692.2969 L124.6719,692.2969 Q125.2813,692.2969 125.5469,692.5313 Q125.8125,692.7656 125.8125,693.1563 Q125.8125,693.5313 125.5469,693.7656 Q125.2813,694 124.6719,694 L119.5313,694 Q118.9219,694 118.6563,693.7656 Q118.3906,693.5313 118.3906,693.1406 Q118.3906,692.7656 118.6563,692.5313 Q118.9219,692.2969 119.5313,692.2969 L121.25,692.2969 L121.25,685.6406 L119.5313,685.6406 Q118.9219,685.6406 118.6563,685.4063 Q118.3906,685.1719 118.3906,684.7813 Q118.3906,684.4063 118.6563,684.1719 Q118.9219,683.9375 119.5313,683.9375 L124.6719,683.9375 Q125.2813,683.9375 125.5469,684.1719 Q125.8125,684.4063 125.8125,684.7813 Q125.8125,685.1719 125.5469,685.4063 Q125.2813,685.6406 124.6719,685.6406 L122.9531,685.6406 Z "/><text fill="#000000" font-family="sans-serif" font-size="12" font-style="italic" lengthAdjust="spacingAndGlyphs" textLength="70" x="136" y="693.9102">Environment</text><line style="stroke: #A80036; stroke-width: 1.5;" x1="108" x2="208" y1="705" y2="705"/><line style="stroke: #A80036; stroke-width: 1.5;" x1="108" x2="208" y1="713" y2="713"/><text fill="#000000" font-family="sans-serif" font-size="11" lengthAdjust="spacingAndGlyphs" textLength="73" x="113" y="728.4189">boolean done()</text><!--class Actuator--><rect fill="#FEFECE" filter="url(#f1nsuparm8shnx)" height="61.8359" id="Actuator" style="stroke: #A80036; stroke-width: 1.5;" width="130" x="75" y="489"/><ellipse cx="113.85" cy="505" fill="#B4A7E5" rx="11" ry="11" style="stroke: #A80036; stroke-width: 1.0;"/><path d="M114.8031,501.6406 L114.8031,508.2969 L116.5219,508.2969 Q117.1313,508.2969 117.3969,508.5313 Q117.6625,508.7656 117.6625,509.1563 Q117.6625,509.5313 117.3969,509.7656 Q117.1313,510 116.5219,510 L111.3813,510 Q110.7719,510 110.5063,509.7656 Q110.2406,509.5313 110.2406,509.1406 Q110.2406,508.7656 110.5063,508.5313 Q110.7719,508.2969 111.3813,508.2969 L113.1,508.2969 L113.1,501.6406 L111.3813,501.6406 Q110.7719,501.6406 110.5063,501.4063 Q110.2406,501.1719 110.2406,500.7813 Q110.2406,500.4063 110.5063,500.1719 Q110.7719,499.9375 111.3813,499.9375 L116.5219,499.9375 Q117.1313,499.9375 117.3969,500.1719 Q117.6625,500.4063 117.6625,500.7813 Q117.6625,501.1719 117.3969,501.4063 Q117.1313,501.6406 116.5219,501.6406 L114.8031,501.6406 Z "/><text fill="#000000" font-family="sans-serif" font-size="12" font-style="italic" lengthAdjust="spacingAndGlyphs" textLength="45" x="133.15" y="509.9102">Actuator</text><line style="stroke: #A80036; stroke-width: 1.5;" x1="76" x2="204" y1="521" y2="521"/><line style="stroke: #A80036; stroke-width: 1.5;" x1="76" x2="204" y1="529" y2="529"/><text fill="#000000" font-family="sans-serif" font-size="11" lengthAdjust="spacingAndGlyphs" textLength="118" x="81" y="544.4189">call(action, environment)</text><!--class Sensor--><rect fill="#FEFECE" filter="url(#f1nsuparm8shnx)" height="61.8359" id="Sensor" style="stroke: #A80036; stroke-width: 1.5;" width="155" x="240.5" y="489"/><ellipse cx="294.25" cy="505" fill="#B4A7E5" rx="11" ry="11" style="stroke: #A80036; stroke-width: 1.0;"/><path d="M295.2031,501.6406 L295.2031,508.2969 L296.9219,508.2969 Q297.5313,508.2969 297.7969,508.5313 Q298.0625,508.7656 298.0625,509.1563 Q298.0625,509.5313 297.7969,509.7656 Q297.5313,510 296.9219,510 L291.7813,510 Q291.1719,510 290.9063,509.7656 Q290.6406,509.5313 290.6406,509.1406 Q290.6406,508.7656 290.9063,508.5313 Q291.1719,508.2969 291.7813,508.2969 L293.5,508.2969 L293.5,501.6406 L291.7813,501.6406 Q291.1719,501.6406 290.9063,501.4063 Q290.6406,501.1719 290.6406,500.7813 Q290.6406,500.4063 290.9063,500.1719 Q291.1719,499.9375 291.7813,499.9375 L296.9219,499.9375 Q297.5313,499.9375 297.7969,500.1719 Q298.0625,500.4063 298.0625,500.7813 Q298.0625,501.1719 297.7969,501.4063 Q297.5313,501.6406 296.9219,501.6406 L295.2031,501.6406 Z "/><text fill="#000000" font-family="sans-serif" font-size="12" font-style="italic" lengthAdjust="spacingAndGlyphs" textLength="39" x="314.75" y="509.9102">Sensor</text><line style="stroke: #A80036; stroke-width: 1.5;" x1="241.5" x2="394.5" y1="521" y2="521"/><line style="stroke: #A80036; stroke-width: 1.5;" x1="241.5" x2="394.5" y1="529" y2="529"/><text fill="#000000" font-family="sans-serif" font-size="11" lengthAdjust="spacingAndGlyphs" textLength="143" x="246.5" y="544.4189">observation call(environment)</text><!--class Spec--><rect fill="#FEFECE" filter="url(#f1nsuparm8shnx)" height="48" id="Spec" style="stroke: #A80036; stroke-width: 1.5;" width="60" x="316" y="813"/><ellipse cx="331" cy="829" fill="#ADD1B2" rx="11" ry="11" style="stroke: #A80036; stroke-width: 1.0;"/><path d="M333.7656,824.875 Q333.9219,824.6563 334.1094,824.5469 Q334.2969,824.4375 334.5156,824.4375 Q334.8906,824.4375 335.125,824.6953 Q335.3594,824.9531 335.3594,825.5625 L335.3594,827.0156 Q335.3594,827.625 335.125,827.8906 Q334.8906,828.1563 334.5156,828.1563 Q334.1719,828.1563 333.9688,827.9531 Q333.7656,827.7656 333.6563,827.25 Q333.6094,826.8906 333.4219,826.7031 Q333.0938,826.3281 332.4844,826.1094 Q331.875,825.8906 331.25,825.8906 Q330.4844,825.8906 329.8516,826.2188 Q329.2188,826.5469 328.7266,827.2969 Q328.2344,828.0469 328.2344,829.0781 L328.2344,830.1719 Q328.2344,831.4063 329.125,832.2266 Q330.0156,833.0469 331.6094,833.0469 Q332.5469,833.0469 333.2031,832.7969 Q333.5938,832.6406 334.0156,832.2031 Q334.2813,831.9375 334.4297,831.8594 Q334.5781,831.7813 334.7813,831.7813 Q335.1094,831.7813 335.3672,832.0391 Q335.625,832.2969 335.625,832.6406 Q335.625,832.9844 335.2813,833.3906 Q334.7813,833.9688 333.9844,834.2969 Q332.9063,834.75 331.6094,834.75 Q330.0938,834.75 328.8906,834.125 Q327.9063,833.625 327.2188,832.5547 Q326.5313,831.4844 326.5313,830.2031 L326.5313,829.0469 Q326.5313,827.7188 327.1484,826.5703 Q327.7656,825.4219 328.8594,824.8047 Q329.9531,824.1875 331.1875,824.1875 Q331.9219,824.1875 332.5703,824.3516 Q333.2188,824.5156 333.7656,824.875 Z "/><text fill="#000000" font-family="sans-serif" font-size="12" lengthAdjust="spacingAndGlyphs" textLength="28" x="345" y="833.9102">Spec</text><line style="stroke: #A80036; stroke-width: 1.5;" x1="317" x2="375" y1="845" y2="845"/><line style="stroke: #A80036; stroke-width: 1.5;" x1="317" x2="375" y1="853" y2="853"/><!--class Space--><rect fill="#FEFECE" filter="url(#f1nsuparm8shnx)" height="48" id="Space" style="stroke: #A80036; stroke-width: 1.5;" width="67" x="312.5" y="922"/><ellipse cx="327.5" cy="938" fill="#ADD1B2" rx="11" ry="11" style="stroke: #A80036; stroke-width: 1.0;"/><path d="M330.2656,933.875 Q330.4219,933.6563 330.6094,933.5469 Q330.7969,933.4375 331.0156,933.4375 Q331.3906,933.4375 331.625,933.6953 Q331.8594,933.9531 331.8594,934.5625 L331.8594,936.0156 Q331.8594,936.625 331.625,936.8906 Q331.3906,937.1563 331.0156,937.1563 Q330.6719,937.1563 330.4688,936.9531 Q330.2656,936.7656 330.1563,936.25 Q330.1094,935.8906 329.9219,935.7031 Q329.5938,935.3281 328.9844,935.1094 Q328.375,934.8906 327.75,934.8906 Q326.9844,934.8906 326.3516,935.2188 Q325.7188,935.5469 325.2266,936.2969 Q324.7344,937.0469 324.7344,938.0781 L324.7344,939.1719 Q324.7344,940.4063 325.625,941.2266 Q326.5156,942.0469 328.1094,942.0469 Q329.0469,942.0469 329.7031,941.7969 Q330.0938,941.6406 330.5156,941.2031 Q330.7813,940.9375 330.9297,940.8594 Q331.0781,940.7813 331.2813,940.7813 Q331.6094,940.7813 331.8672,941.0391 Q332.125,941.2969 332.125,941.6406 Q332.125,941.9844 331.7813,942.3906 Q331.2813,942.9688 330.4844,943.2969 Q329.4063,943.75 328.1094,943.75 Q326.5938,943.75 325.3906,943.125 Q324.4063,942.625 323.7188,941.5547 Q323.0313,940.4844 323.0313,939.2031 L323.0313,938.0469 Q323.0313,936.7188 323.6484,935.5703 Q324.2656,934.4219 325.3594,933.8047 Q326.4531,933.1875 327.6875,933.1875 Q328.4219,933.1875 329.0703,933.3516 Q329.7188,933.5156 330.2656,933.875 Z "/><text fill="#000000" font-family="sans-serif" font-size="12" lengthAdjust="spacingAndGlyphs" textLength="35" x="341.5" y="942.9102">Space</text><line style="stroke: #A80036; stroke-width: 1.5;" x1="313.5" x2="378.5" y1="954" y2="954"/><line style="stroke: #A80036; stroke-width: 1.5;" x1="313.5" x2="378.5" y1="962" y2="962"/><path d="M67,824 L67,850.3516 A0,0 0 0 0 67,850.3516 L281,850.3516 A0,0 0 0 0 281,850.3516 L281,842 L315.861,837 L281,834 L281,834 L271,824 L67,824 A0,0 0 0 0 67,824 " fill="#FBFB77" filter="url(#f1nsuparm8shnx)" style="stroke: #A80036; stroke-width: 1.0;"/><path d="M271,824 L271,834 L281,834 L271,824 " fill="#FBFB77" style="stroke: #A80036; stroke-width: 1.0;"/><text fill="#000000" font-family="sans-serif" font-size="13" lengthAdjust="spacingAndGlyphs" textLength="193" x="73" y="842.4951">action spec and observation spec</text><!--class Agent--><rect fill="#FEFECE" filter="url(#f1nsuparm8shnx)" height="48" id="Agent" style="stroke: #A80036; stroke-width: 1.5;" width="63" x="286.5" y="378"/><ellipse cx="301.5" cy="394" fill="#ADD1B2" rx="11" ry="11" style="stroke: #A80036; stroke-width: 1.0;"/><path d="M304.2656,389.875 Q304.4219,389.6563 304.6094,389.5469 Q304.7969,389.4375 305.0156,389.4375 Q305.3906,389.4375 305.625,389.6953 Q305.8594,389.9531 305.8594,390.5625 L305.8594,392.0156 Q305.8594,392.625 305.625,392.8906 Q305.3906,393.1563 305.0156,393.1563 Q304.6719,393.1563 304.4688,392.9531 Q304.2656,392.7656 304.1563,392.25 Q304.1094,391.8906 303.9219,391.7031 Q303.5938,391.3281 302.9844,391.1094 Q302.375,390.8906 301.75,390.8906 Q300.9844,390.8906 300.3516,391.2188 Q299.7188,391.5469 299.2266,392.2969 Q298.7344,393.0469 298.7344,394.0781 L298.7344,395.1719 Q298.7344,396.4063 299.625,397.2266 Q300.5156,398.0469 302.1094,398.0469 Q303.0469,398.0469 303.7031,397.7969 Q304.0938,397.6406 304.5156,397.2031 Q304.7813,396.9375 304.9297,396.8594 Q305.0781,396.7813 305.2813,396.7813 Q305.6094,396.7813 305.8672,397.0391 Q306.125,397.2969 306.125,397.6406 Q306.125,397.9844 305.7813,398.3906 Q305.2813,398.9688 304.4844,399.2969 Q303.4063,399.75 302.1094,399.75 Q300.5938,399.75 299.3906,399.125 Q298.4063,398.625 297.7188,397.5547 Q297.0313,396.4844 297.0313,395.2031 L297.0313,394.0469 Q297.0313,392.7188 297.6484,391.5703 Q298.2656,390.4219 299.3594,389.8047 Q300.4531,389.1875 301.6875,389.1875 Q302.4219,389.1875 303.0703,389.3516 Q303.7188,389.5156 304.2656,389.875 Z "/><text fill="#000000" font-family="sans-serif" font-size="12" lengthAdjust="spacingAndGlyphs" textLength="31" x="315.5" y="398.9102">Agent</text><line style="stroke: #A80036; stroke-width: 1.5;" x1="287.5" x2="348.5" y1="410" y2="410"/><line style="stroke: #A80036; stroke-width: 1.5;" x1="287.5" x2="348.5" y1="418" y2="418"/><!--class Run--><rect fill="#FEFECE" filter="url(#f1nsuparm8shnx)" height="48" id="Run" style="stroke: #A80036; stroke-width: 1.5;" width="55" x="290.5" y="252"/><ellipse cx="305.5" cy="268" fill="#ADD1B2" rx="11" ry="11" style="stroke: #A80036; stroke-width: 1.0;"/><path d="M308.2656,263.875 Q308.4219,263.6563 308.6094,263.5469 Q308.7969,263.4375 309.0156,263.4375 Q309.3906,263.4375 309.625,263.6953 Q309.8594,263.9531 309.8594,264.5625 L309.8594,266.0156 Q309.8594,266.625 309.625,266.8906 Q309.3906,267.1563 309.0156,267.1563 Q308.6719,267.1563 308.4688,266.9531 Q308.2656,266.7656 308.1563,266.25 Q308.1094,265.8906 307.9219,265.7031 Q307.5938,265.3281 306.9844,265.1094 Q306.375,264.8906 305.75,264.8906 Q304.9844,264.8906 304.3516,265.2188 Q303.7188,265.5469 303.2266,266.2969 Q302.7344,267.0469 302.7344,268.0781 L302.7344,269.1719 Q302.7344,270.4063 303.625,271.2266 Q304.5156,272.0469 306.1094,272.0469 Q307.0469,272.0469 307.7031,271.7969 Q308.0938,271.6406 308.5156,271.2031 Q308.7813,270.9375 308.9297,270.8594 Q309.0781,270.7813 309.2813,270.7813 Q309.6094,270.7813 309.8672,271.0391 Q310.125,271.2969 310.125,271.6406 Q310.125,271.9844 309.7813,272.3906 Q309.2813,272.9688 308.4844,273.2969 Q307.4063,273.75 306.1094,273.75 Q304.5938,273.75 303.3906,273.125 Q302.4063,272.625 301.7188,271.5547 Q301.0313,270.4844 301.0313,269.2031 L301.0313,268.0469 Q301.0313,266.7188 301.6484,265.5703 Q302.2656,264.4219 303.3594,263.8047 Q304.4531,263.1875 305.6875,263.1875 Q306.4219,263.1875 307.0703,263.3516 Q307.7188,263.5156 308.2656,263.875 Z "/><text fill="#000000" font-family="sans-serif" font-size="12" lengthAdjust="spacingAndGlyphs" textLength="23" x="319.5" y="272.9102">Run</text><line style="stroke: #A80036; stroke-width: 1.5;" x1="291.5" x2="344.5" y1="284" y2="284"/><line style="stroke: #A80036; stroke-width: 1.5;" x1="291.5" x2="344.5" y1="292" y2="292"/><!--class Sink--><rect fill="#FEFECE" filter="url(#f1nsuparm8shnx)" height="48" id="Sink" style="stroke: #A80036; stroke-width: 1.5;" width="56" x="607" y="252"/><ellipse cx="622" cy="268" fill="#ADD1B2" rx="11" ry="11" style="stroke: #A80036; stroke-width: 1.0;"/><path d="M624.7656,263.875 Q624.9219,263.6563 625.1094,263.5469 Q625.2969,263.4375 625.5156,263.4375 Q625.8906,263.4375 626.125,263.6953 Q626.3594,263.9531 626.3594,264.5625 L626.3594,266.0156 Q626.3594,266.625 626.125,266.8906 Q625.8906,267.1563 625.5156,267.1563 Q625.1719,267.1563 624.9688,266.9531 Q624.7656,266.7656 624.6563,266.25 Q624.6094,265.8906 624.4219,265.7031 Q624.0938,265.3281 623.4844,265.1094 Q622.875,264.8906 622.25,264.8906 Q621.4844,264.8906 620.8516,265.2188 Q620.2188,265.5469 619.7266,266.2969 Q619.2344,267.0469 619.2344,268.0781 L619.2344,269.1719 Q619.2344,270.4063 620.125,271.2266 Q621.0156,272.0469 622.6094,272.0469 Q623.5469,272.0469 624.2031,271.7969 Q624.5938,271.6406 625.0156,271.2031 Q625.2813,270.9375 625.4297,270.8594 Q625.5781,270.7813 625.7813,270.7813 Q626.1094,270.7813 626.3672,271.0391 Q626.625,271.2969 626.625,271.6406 Q626.625,271.9844 626.2813,272.3906 Q625.7813,272.9688 624.9844,273.2969 Q623.9063,273.75 622.6094,273.75 Q621.0938,273.75 619.8906,273.125 Q618.9063,272.625 618.2188,271.5547 Q617.5313,270.4844 617.5313,269.2031 L617.5313,268.0469 Q617.5313,266.7188 618.1484,265.5703 Q618.7656,264.4219 619.8594,263.8047 Q620.9531,263.1875 622.1875,263.1875 Q622.9219,263.1875 623.5703,263.3516 Q624.2188,263.5156 624.7656,263.875 Z "/><text fill="#000000" font-family="sans-serif" font-size="12" lengthAdjust="spacingAndGlyphs" textLength="24" x="636" y="272.9102">Sink</text><line style="stroke: #A80036; stroke-width: 1.5;" x1="608" x2="662" y1="284" y2="284"/><line style="stroke: #A80036; stroke-width: 1.5;" x1="608" x2="662" y1="292" y2="292"/><!--class SharedMem--><rect fill="#FEFECE" filter="url(#f1nsuparm8shnx)" height="48" id="SharedMem" style="stroke: #A80036; stroke-width: 1.5;" width="99" x="552.5" y="378"/><ellipse cx="567.5" cy="394" fill="#ADD1B2" rx="11" ry="11" style="stroke: #A80036; stroke-width: 1.0;"/><path d="M570.2656,389.875 Q570.4219,389.6563 570.6094,389.5469 Q570.7969,389.4375 571.0156,389.4375 Q571.3906,389.4375 571.625,389.6953 Q571.8594,389.9531 571.8594,390.5625 L571.8594,392.0156 Q571.8594,392.625 571.625,392.8906 Q571.3906,393.1563 571.0156,393.1563 Q570.6719,393.1563 570.4688,392.9531 Q570.2656,392.7656 570.1563,392.25 Q570.1094,391.8906 569.9219,391.7031 Q569.5938,391.3281 568.9844,391.1094 Q568.375,390.8906 567.75,390.8906 Q566.9844,390.8906 566.3516,391.2188 Q565.7188,391.5469 565.2266,392.2969 Q564.7344,393.0469 564.7344,394.0781 L564.7344,395.1719 Q564.7344,396.4063 565.625,397.2266 Q566.5156,398.0469 568.1094,398.0469 Q569.0469,398.0469 569.7031,397.7969 Q570.0938,397.6406 570.5156,397.2031 Q570.7813,396.9375 570.9297,396.8594 Q571.0781,396.7813 571.2813,396.7813 Q571.6094,396.7813 571.8672,397.0391 Q572.125,397.2969 572.125,397.6406 Q572.125,397.9844 571.7813,398.3906 Q571.2813,398.9688 570.4844,399.2969 Q569.4063,399.75 568.1094,399.75 Q566.5938,399.75 565.3906,399.125 Q564.4063,398.625 563.7188,397.5547 Q563.0313,396.4844 563.0313,395.2031 L563.0313,394.0469 Q563.0313,392.7188 563.6484,391.5703 Q564.2656,390.4219 565.3594,389.8047 Q566.4531,389.1875 567.6875,389.1875 Q568.4219,389.1875 569.0703,389.3516 Q569.7188,389.5156 570.2656,389.875 Z "/><text fill="#000000" font-family="sans-serif" font-size="12" lengthAdjust="spacingAndGlyphs" textLength="67" x="581.5" y="398.9102">SharedMem</text><line style="stroke: #A80036; stroke-width: 1.5;" x1="553.5" x2="650.5" y1="410" y2="410"/><line style="stroke: #A80036; stroke-width: 1.5;" x1="553.5" x2="650.5" y1="418" y2="418"/><!--class Store--><rect fill="#FEFECE" filter="url(#f1nsuparm8shnx)" height="48" id="Store" style="stroke: #A80036; stroke-width: 1.5;" width="61" x="702.5" y="378"/><ellipse cx="717.5" cy="394" fill="#ADD1B2" rx="11" ry="11" style="stroke: #A80036; stroke-width: 1.0;"/><path d="M720.2656,389.875 Q720.4219,389.6563 720.6094,389.5469 Q720.7969,389.4375 721.0156,389.4375 Q721.3906,389.4375 721.625,389.6953 Q721.8594,389.9531 721.8594,390.5625 L721.8594,392.0156 Q721.8594,392.625 721.625,392.8906 Q721.3906,393.1563 721.0156,393.1563 Q720.6719,393.1563 720.4688,392.9531 Q720.2656,392.7656 720.1563,392.25 Q720.1094,391.8906 719.9219,391.7031 Q719.5938,391.3281 718.9844,391.1094 Q718.375,390.8906 717.75,390.8906 Q716.9844,390.8906 716.3516,391.2188 Q715.7188,391.5469 715.2266,392.2969 Q714.7344,393.0469 714.7344,394.0781 L714.7344,395.1719 Q714.7344,396.4063 715.625,397.2266 Q716.5156,398.0469 718.1094,398.0469 Q719.0469,398.0469 719.7031,397.7969 Q720.0938,397.6406 720.5156,397.2031 Q720.7813,396.9375 720.9297,396.8594 Q721.0781,396.7813 721.2813,396.7813 Q721.6094,396.7813 721.8672,397.0391 Q722.125,397.2969 722.125,397.6406 Q722.125,397.9844 721.7813,398.3906 Q721.2813,398.9688 720.4844,399.2969 Q719.4063,399.75 718.1094,399.75 Q716.5938,399.75 715.3906,399.125 Q714.4063,398.625 713.7188,397.5547 Q713.0313,396.4844 713.0313,395.2031 L713.0313,394.0469 Q713.0313,392.7188 713.6484,391.5703 Q714.2656,390.4219 715.3594,389.8047 Q716.4531,389.1875 717.6875,389.1875 Q718.4219,389.1875 719.0703,389.3516 Q719.7188,389.5156 720.2656,389.875 Z "/><text fill="#000000" font-family="sans-serif" font-size="12" lengthAdjust="spacingAndGlyphs" textLength="29" x="731.5" y="398.9102">Store</text><line style="stroke: #A80036; stroke-width: 1.5;" x1="703.5" x2="762.5" y1="410" y2="410"/><line style="stroke: #A80036; stroke-width: 1.5;" x1="703.5" x2="762.5" y1="418" y2="418"/><!--class Testbed--><rect fill="#FEFECE" filter="url(#f1nsuparm8shnx)" height="89.5078" id="Testbed" style="stroke: #A80036; stroke-width: 1.5;" width="185" x="542.5" y="60"/><ellipse cx="608.25" cy="76" fill="#B4A7E5" rx="11" ry="11" style="stroke: #A80036; stroke-width: 1.0;"/><path d="M609.2031,72.6406 L609.2031,79.2969 L610.9219,79.2969 Q611.5313,79.2969 611.7969,79.5313 Q612.0625,79.7656 612.0625,80.1563 Q612.0625,80.5313 611.7969,80.7656 Q611.5313,81 610.9219,81 L605.7813,81 Q605.1719,81 604.9063,80.7656 Q604.6406,80.5313 604.6406,80.1406 Q604.6406,79.7656 604.9063,79.5313 Q605.1719,79.2969 605.7813,79.2969 L607.5,79.2969 L607.5,72.6406 L605.7813,72.6406 Q605.1719,72.6406 604.9063,72.4063 Q604.6406,72.1719 604.6406,71.7813 Q604.6406,71.4063 604.9063,71.1719 Q605.1719,70.9375 605.7813,70.9375 L610.9219,70.9375 Q611.5313,70.9375 611.7969,71.1719 Q612.0625,71.4063 612.0625,71.7813 Q612.0625,72.1719 611.7969,72.4063 Q611.5313,72.6406 610.9219,72.6406 L609.2031,72.6406 Z "/><text fill="#000000" font-family="sans-serif" font-size="12" font-style="italic" lengthAdjust="spacingAndGlyphs" textLength="45" x="628.75" y="80.9102">Testbed</text><line style="stroke: #A80036; stroke-width: 1.5;" x1="543.5" x2="726.5" y1="92" y2="92"/><line style="stroke: #A80036; stroke-width: 1.5;" x1="543.5" x2="726.5" y1="100" y2="100"/><text fill="#000000" font-family="sans-serif" font-size="11" lengthAdjust="spacingAndGlyphs" textLength="24" x="548.5" y="115.4189">run()</text><text fill="#000000" font-family="sans-serif" font-size="11" lengthAdjust="spacingAndGlyphs" textLength="173" x="548.5" y="129.2549">worker(runs, env_cfg, task, param)</text><text fill="#000000" font-family="sans-serif" font-size="11" lengthAdjust="spacingAndGlyphs" textLength="25" x="548.5" y="143.0908">plot()</text><!--link Spec to Space--><path d="M346,861.217 C346,877.482 346,899.315 346,916.6155 " fill="none" id="Spec-Space" style="stroke: #A80036; stroke-width: 1.0;"/><polygon fill="#A80036" points="346,921.8279,350,912.8279,346,916.8279,342,912.8279,346,921.8279" style="stroke: #A80036; stroke-width: 1.0;"/><text fill="#000000" font-family="sans-serif" font-size="13" lengthAdjust="spacingAndGlyphs" textLength="20" x="323.4375" y="911.124">1..*</text><!--link Environment to Spec--><path d="M201.131,735.054 C234.608,758.381 280.404,790.292 311.479,811.946 " fill="none" id="Environment-Spec" style="stroke: #A80036; stroke-width: 1.0;"/><polygon fill="#A80036" points="315.954,815.064,310.8562,806.6371,311.8515,812.2057,306.2829,813.201,315.954,815.064" style="stroke: #A80036; stroke-width: 1.0;"/><text fill="#000000" font-family="sans-serif" font-size="13" lengthAdjust="spacingAndGlyphs" textLength="47" x="270" y="779.4951">provides</text><polygon fill="#000000" points="320,772.6758,326,775.6758,320,778.6758,320,772.6758" style="stroke: #000000; stroke-width: 1.0;"/><!--link AgentProgram to Spec--><path d="M421.267,643.075 C404.341,686.46 373.305,766.011 356.873,808.131 " fill="none" id="AgentProgram-Spec" style="stroke: #A80036; stroke-width: 1.0;"/><polygon fill="#A80036" points="355.039,812.83,362.0361,805.8989,356.856,808.1718,354.583,802.9917,355.039,812.83" style="stroke: #A80036; stroke-width: 1.0;"/><!--link Actuator to Environment--><path d="M98.6864,551.016 C89.8961,559.619 81.8194,569.755 77,581 C66.1453,606.328 64.6035,618.39 77,643 C82.9078,654.728 92.3117,664.736 102.6546,673.024 " fill="none" id="Actuator-Environment" style="stroke: #A80036; stroke-width: 1.0;"/><polygon fill="#A80036" points="106.817,676.234,102.132,667.5708,102.8573,673.181,97.2472,673.9063,106.817,676.234" style="stroke: #A80036; stroke-width: 1.0;"/><text fill="#000000" font-family="sans-serif" font-size="13" lengthAdjust="spacingAndGlyphs" textLength="92" x="78" y="617.4951">executes action</text><polygon fill="#000000" points="119.5,626.3516,122.5,632.3516,125.5,626.3516,119.5,626.3516" style="stroke: #000000; stroke-width: 1.0;"/><!--link Sensor to Environment--><path d="M252.08,551.011 C238.603,559.319 225.385,569.326 215,581 C195.024,603.456 200.725,615.772 188,643 C184.131,651.279 179.815,660.12 175.69,668.401 " fill="none" id="Sensor-Environment" style="stroke: #A80036; stroke-width: 1.0;"/><polygon fill="#A80036" points="173.422,672.936,181.0262,666.677,175.6592,668.4644,173.8717,663.0974,173.422,672.936" style="stroke: #A80036; stroke-width: 1.0;"/><text fill="#000000" font-family="sans-serif" font-size="13" lengthAdjust="spacingAndGlyphs" textLength="123" x="216" y="617.4951">gets observation from</text><polygon fill="#000000" points="273,626.3516,276,632.3516,279,626.3516,273,626.3516" style="stroke: #000000; stroke-width: 1.0;"/><!--link Run to Agent--><path d="M318,300.033 C318,320.522 318,350.561 318,372.546 " fill="none" id="Run-Agent" style="stroke: #A80036; stroke-width: 1.0;"/><polygon fill="#A80036" points="318,377.67,322,368.67,318,372.67,314,368.67,318,377.67" style="stroke: #A80036; stroke-width: 1.0;"/><!--link Run to Environment--><path d="M290.247,289.248 C233.695,315.949 106.307,385.427 57,489 C49.1266,505.539 55.8361,634.19 61,643 C70.4727,659.162 86.1913,671.573 102.2457,680.797 " fill="none" id="Run-Environment" style="stroke: #A80036; stroke-width: 1.0;"/><polygon fill="#A80036" points="106.778,683.315,100.8528,675.4479,102.4071,680.887,96.968,682.4413,106.778,683.315" style="stroke: #A80036; stroke-width: 1.0;"/><!--link Agent to AgentProgram--><path d="M349.663,423.123 C371.086,438.492 398.101,461.648 413,489 C426.064,512.982 431.082,543.262 432.825,567.656 " fill="none" id="Agent-AgentProgram" style="stroke: #A80036; stroke-width: 1.0;"/><polygon fill="#FFFFFF" points="433.499,580.885,437.1885,574.6893,432.8884,568.9005,429.1989,575.0963,433.499,580.885" style="stroke: #A80036; stroke-width: 1.0;"/><!--link Agent to Actuator--><path d="M286.177,423.738 C261.527,439.803 226.728,462.48 197.268,481.68 " fill="none" id="Agent-Actuator" style="stroke: #A80036; stroke-width: 1.0;"/><polygon fill="#FFFFFF" points="186.27,488.846,193.4807,488.9209,196.3232,482.2937,189.1125,482.2188,186.27,488.846" style="stroke: #A80036; stroke-width: 1.0;"/><!--link Agent to Sensor--><path d="M318,426.196 C318,440.245 318,458.619 318,475.307 " fill="none" id="Agent-Sensor" style="stroke: #A80036; stroke-width: 1.0;"/><polygon fill="#FFFFFF" points="318,488.797,322,482.797,318,476.797,314,482.797,318,488.797" style="stroke: #A80036; stroke-width: 1.0;"/><!--link Testbed to Run--><path d="M552.126,150.182 C486.15,185.355 397.34,232.702 350.328,257.765 " fill="none" id="Testbed-Run" style="stroke: #A80036; stroke-width: 1.0;"/><polygon fill="#A80036" points="345.635,260.267,355.4586,259.5623,350.047,257.9146,351.6947,252.503,345.635,260.267" style="stroke: #A80036; stroke-width: 1.0;"/><text fill="#000000" font-family="sans-serif" font-size="13" lengthAdjust="spacingAndGlyphs" textLength="20" x="353.3972" y="252.9034">1..*</text><!--link Testbed to Sink--><path d="M635,150.403 C635,180.842 635,220.318 635,246.595 " fill="none" id="Testbed-Sink" style="stroke: #A80036; stroke-width: 1.0;"/><polygon fill="#A80036" points="635,251.668,639,242.668,635,246.668,631,242.668,635,251.668" style="stroke: #A80036; stroke-width: 1.0;"/><text fill="#000000" font-family="sans-serif" font-size="13" lengthAdjust="spacingAndGlyphs" textLength="83" x="636" y="196.4951">dumps data to</text><polygon fill="#000000" points="673,205.3516,676,211.3516,679,205.3516,673,205.3516" style="stroke: #000000; stroke-width: 1.0;"/><!--link Sink to SharedMem--><path d="M606.853,298.604 C597.776,307.265 588.821,318.038 584,330 C578.454,343.761 581.702,359.726 586.88,373.028 " fill="none" id="Sink-SharedMem" style="stroke: #A80036; stroke-width: 1.0;"/><polygon fill="#A80036" points="588.863,377.799,589.1033,367.9531,586.9444,373.1818,581.7157,371.0229,588.863,377.799" style="stroke: #A80036; stroke-width: 1.0;"/><text fill="#000000" font-family="sans-serif" font-size="13" lengthAdjust="spacingAndGlyphs" textLength="47" x="585" y="344.4951">provides</text><polygon fill="#000000" points="604,353.3516,607,359.3516,610,353.3516,604,353.3516" style="stroke: #000000; stroke-width: 1.0;"/><!--link Testbed to Store--><path d="M710.501,150.029 C721.987,159.387 732.741,170.091 741,182 C784.248,244.36 808.299,277.191 781,348 C777.383,357.382 771.249,366.133 764.554,373.713 " fill="none" id="Testbed-Store" style="stroke: #A80036; stroke-width: 1.0;"/><polygon fill="#A80036" points="760.789,377.801,769.8287,373.8915,764.1766,374.1235,763.9447,368.4714,760.789,377.801" style="stroke: #A80036; stroke-width: 1.0;"/><text fill="#000000" font-family="sans-serif" font-size="13" lengthAdjust="spacingAndGlyphs" textLength="76" x="793" y="281.4951">saves data in</text><polygon fill="#000000" points="826.5,290.3516,829.5,296.3516,832.5,290.3516,826.5,290.3516" style="stroke: #000000; stroke-width: 1.0;"/><!--link Sink to Store--><path d="M650.726,300.143 C660.525,314.24 673.589,332.468 686,348 C692.928,356.669 700.811,365.812 708.115,374.017 " fill="none" id="Sink-Store" style="stroke: #A80036; stroke-width: 1.0;"/><polygon fill="#A80036" points="711.648,377.964,708.6268,368.59,708.3136,374.2382,702.6654,373.925,711.648,377.964" style="stroke: #A80036; stroke-width: 1.0;"/><text fill="#000000" font-family="sans-serif" font-size="13" lengthAdjust="spacingAndGlyphs" textLength="76" x="687" y="344.4951">saves data in</text><polygon fill="#000000" points="720.5,353.3516,723.5,359.3516,726.5,353.3516,720.5,353.3516" style="stroke: #000000; stroke-width: 1.0;"/><!--
@startuml
skinparam packageStyle Frame

package rlbox.core {
    interface AgentProgram {
        action call(observation)
    }

    interface Environment {
        boolean done()
    }

    interface Actuator {
        call(action, environment)
    }

    interface Sensor {
        observation call(environment)
    }

    class Spec
    class Space
    note left of Spec: action spec and observation spec

    class Agent
    class Run
}

package rlbox.testbed.sink {
    class Sink
    class SharedMem
    class Store
}

package rlbox.testbed {
    interface Testbed {
        run()
        worker(runs, env_cfg, task, param)
        plot()
    }
}

Spec - -> "1..*" Space

Environment - -> Spec : provides >
AgentProgram - -> Spec

Actuator - -> Environment : executes action >
Sensor - -> Environment : gets observation from >

Run - -> Agent
Run - -> Environment
Agent - -o AgentProgram
Agent - -o Actuator
Agent - -o Sensor

Testbed - -> "1..*" Run
Testbed - -> Sink : dumps data to >

Sink - -> SharedMem : provides >
Testbed - -> Store : saves data in >
Sink - -> Store : saves data in >
@enduml

PlantUML version 1.2018.13(Mon Nov 26 18:11:51 CET 2018)
(APACHE source distribution)
Java Runtime: Java(TM) SE Runtime Environment
JVM: Java HotSpot(TM) 64-Bit Server VM
Java Version: 10.0.2+13
Operating System: Windows 10
OS Version: 10.0
Default Encoding: Cp1250
Language: pl
Country: PL
--></g></svg>